<svg width="606" height="606" viewBox="0 0 606 606" fill="none" xmlns="http://www.w3.org/2000/svg">
<path d="M0 49.6C0 32.2384 0 23.5576 3.3788 16.9263C6.35087 11.0933 11.0933 6.35087 16.9263 3.3788C23.5576 0 32.2384 0 49.6 0H150.4C167.762 0 176.442 0 183.074 3.3788C188.907 6.35087 193.649 11.0933 196.621 16.9263C200 23.5576 200 32.2384 200 49.6V150.4C200 167.762 200 176.442 196.621 183.074C193.649 188.907 188.907 193.649 183.074 196.621C176.442 200 167.762 200 150.4 200H49.6C32.2384 200 23.5576 200 16.9263 196.621C11.0933 193.649 6.35087 188.907 3.3788 183.074C0 176.442 0 167.762 0 150.4V49.6Z" fill="#D12B2E"/>
<path d="M0 252.6C0 235.238 0 226.558 3.3788 219.926C6.35087 214.093 11.0933 209.351 16.9263 206.379C23.5576 203 32.2384 203 49.6 203H150.4C167.762 203 176.442 203 183.074 206.379C188.907 209.351 193.649 214.093 196.621 219.926C200 226.558 200 235.238 200 252.6V353.4C200 370.762 200 379.442 196.621 386.074C193.649 391.907 188.907 396.649 183.074 399.621C176.442 403 167.762 403 150.4 403H49.6C32.2384 403 23.5576 403 16.9263 399.621C11.0933 396.649 6.35087 391.907 3.3788 386.074C0 379.442 0 370.762 0 353.4V252.6Z" fill="#0D8440"/>
<path d="M0 455.6C0 438.238 0 429.558 3.3788 422.926C6.35087 417.093 11.0933 412.351 16.9263 409.379C23.5576 406 32.2384 406 49.6 406H150.4C167.762 406 176.442 406 183.074 409.379C188.907 412.351 193.649 417.093 196.621 422.926C200 429.558 200 438.238 200 455.6V556.4C200 573.762 200 582.442 196.621 589.074C193.649 594.907 188.907 599.649 183.074 602.621C176.442 606 167.762 606 150.4 606H49.6C32.2384 606 23.5576 606 16.9263 602.621C11.0933 599.649 6.35087 594.907 3.3788 589.074C0 582.442 0 573.762 0 556.4V455.6Z" fill="#E8B900"/>
<path d="M203 49.6C203 32.2384 203 23.5576 206.379 16.9263C209.351 11.0933 214.093 6.35087 219.926 3.3788C226.558 0 235.238 0 252.6 0H353.4C370.762 0 379.442 0 386.074 3.3788C391.907 6.35087 396.649 11.0933 399.621 16.9263C403 23.5576 403 32.2384 403 49.6V150.4C403 167.762 403 176.442 399.621 183.074C396.649 188.907 391.907 193.649 386.074 196.621C379.442 200 370.762 200 353.4 200H252.6C235.238 200 226.558 200 219.926 196.621C214.093 193.649 209.351 188.907 206.379 183.074C203 176.442 203 167.762 203 150.4V49.6Z" fill="#0097E7"/>
<path d="M203 252.6C203 235.238 203 226.558 206.379 219.926C209.351 214.093 214.093 209.351 219.926 206.379C226.558 203 235.238 203 252.6 203H353.4C370.762 203 379.442 203 386.074 206.379C391.907 209.351 396.649 214.093 399.621 219.926C403 226.558 403 235.238 403 252.6V353.4C403 370.762 403 379.442 399.621 386.074C396.649 391.907 391.907 396.649 386.074 399.621C379.442 403 370.762 403 353.4 403H252.6C235.238 403 226.558 403 219.926 399.621C214.093 396.649 209.351 391.907 206.379 386.074C203 379.442 203 370.762 203 353.4V252.6Z" fill="#DCD7DB"/>
<path d="M203 455.6C203 438.238 203 429.558 206.379 422.926C209.351 417.093 214.093 412.351 219.926 409.379C226.558 406 235.238 406 252.6 406H353.4C370.762 406 379.442 406 386.074 409.379C391.907 412.351 396.649 417.093 399.621 422.926C403 429.558 403 438.238 403 455.6V556.4C403 573.762 403 582.442 399.621 589.074C396.649 594.907 391.907 599.649 386.074 602.621C379.442 606 370.762 606 353.4 606H252.6C235.238 606 226.558 606 219.926 602.621C214.093 599.649 209.351 594.907 206.379 589.074C203 582.442 203 573.762 203 556.4V455.6Z" fill="#FE8237"/>
<path d="M406 49.6C406 32.2384 406 23.5576 409.379 16.9263C412.351 11.0933 417.093 6.35087 422.926 3.3788C429.558 0 438.238 0 455.6 0H556.4C573.762 0 582.442 0 589.074 3.3788C594.907 6.35087 599.649 11.0933 602.621 16.9263C606 23.5576 606 32.2384 606 49.6V150.4C606 167.762 606 176.442 602.621 183.074C599.649 188.907 594.907 193.649 589.074 196.621C582.442 200 573.762 200 556.4 200H455.6C438.238 200 429.558 200 422.926 196.621C417.093 193.649 412.351 188.907 409.379 183.074C406 176.442 406 167.762 406 150.4V49.6Z" fill="#0097E7"/>
<path d="M406 252.6C406 235.238 406 226.558 409.379 219.926C412.351 214.093 417.093 209.351 422.926 206.379C429.558 203 438.238 203 455.6 203H556.4C573.762 203 582.442 203 589.074 206.379C594.907 209.351 599.649 214.093 602.621 219.926C606 226.558 606 235.238 606 252.6V353.4C606 370.762 606 379.442 602.621 386.074C599.649 391.907 594.907 396.649 589.074 399.621C582.442 403 573.762 403 556.4 403H455.6C438.238 403 429.558 403 422.926 399.621C417.093 396.649 412.351 391.907 409.379 386.074C406 379.442 406 370.762 406 353.4V252.6Z" fill="#0D8440"/>
<path d="M406 455.6C406 438.238 406 429.558 409.379 422.926C412.351 417.093 417.093 412.351 422.926 409.379C429.558 406 438.238 406 455.6 406H556.4C573.762 406 582.442 406 589.074 409.379C594.907 412.351 599.649 417.093 602.621 422.926C606 429.558 606 438.238 606 455.6V556.4C606 573.762 606 582.442 602.621 589.074C599.649 594.907 594.907 599.649 589.074 602.621C582.442 606 573.762 606 556.4 606H455.6C438.238 606 429.558 606 422.926 602.621C417.093 599.649 412.351 594.907 409.379 589.074C406 582.442 406 573.762 406 556.4V455.6Z" fill="#E8B900"/>
</svg>
